<svg width="82" height="42" viewBox="0 0 82 42" fill="none" xmlns="http://www.w3.org/2000/svg">
<path d="M81.9229 26.7321V32.0575H66.3906V18.2324L81.9742 18.2849V23.243H72.3981V26.7583H81.9229V26.7321Z" fill="#E2E2E2"/>
<path d="M81.5121 10.3099V14.6384H66.904V10.3099H81.5121ZM81.9998 9.83765H66.4419V15.1368H81.9998V9.83765Z" fill="#E2E2E2"/>
<path d="M52.4247 15.1367L48.317 9.81128H43.6445V15.1367H52.4247Z" fill="#E2E2E2"/>
<path d="M63.0535 9.81128H57.0717V15.1367H63.0535V9.81128Z" fill="#E2E2E2"/>
<path d="M57.0716 18.2323V21.1442L54.8123 18.2323H43.6445V32.0836H49.6264V21.1442L58.2782 32.0836H63.0534V18.2323H57.0716Z" fill="#E2E2E2"/>
<path d="M39.5623 15.1369C39.1515 14.4548 38.6894 13.799 38.1503 13.1956C37.2004 12.12 36.0194 11.2543 34.6844 10.5985C33.3237 9.96886 31.8347 9.65405 30.1659 9.65405C28.5485 9.65405 27.0595 9.96886 25.6988 10.5722C24.3381 11.1756 23.1572 12.0151 22.1559 13.0644C21.5398 13.7203 21.0263 14.4023 20.5898 15.1631H39.5623V15.1369Z" fill="#E2E2E2"/>
<path d="M34.633 18.2323C34.6843 18.3897 34.7356 18.5471 34.787 18.7045C34.9924 19.3866 35.0951 20.1211 35.0951 20.8819C35.0951 21.6164 34.9924 22.3247 34.8127 23.0331C34.6073 23.7414 34.3249 24.371 33.9141 24.9481C33.5033 25.5252 32.9899 25.9712 32.3737 26.3123C31.7319 26.6533 30.9874 26.8107 30.1402 26.8107C29.2929 26.8107 28.5484 26.6533 27.9066 26.3123C27.2904 25.9974 26.777 25.5515 26.3662 25.0006C25.9554 24.4497 25.6474 23.8201 25.442 23.1117C25.2366 22.4034 25.1339 21.6951 25.1339 20.9344C25.1339 20.1998 25.2366 19.4915 25.4163 18.7832C25.4676 18.5996 25.519 18.4159 25.596 18.2323H19.3318C19.1264 19.098 19.0237 19.9637 19.0237 20.8819C19.0237 22.3247 19.2804 23.7151 19.7939 25.0793C20.3073 26.4172 21.0519 27.6502 22.0274 28.7257C23.003 29.8013 24.1583 30.667 25.519 31.2966C26.8797 31.9262 28.3687 32.241 30.0375 32.241C31.6805 32.241 33.1696 31.9262 34.5303 31.3229C35.8909 30.6933 37.0462 29.88 38.0475 28.8044C39.0487 27.7551 39.8189 26.5484 40.3581 25.2104C40.8972 23.8725 41.1796 22.4821 41.1796 21.0131C41.1796 20.0687 41.0512 19.1505 40.8459 18.2585H34.633V18.2323Z" fill="#E2E2E2"/>
<path d="M38.5867 38.8521C38.5867 38.4324 38.6637 38.0388 38.8177 37.6978C38.9718 37.3305 39.2028 37.0157 39.4852 36.7534C39.7676 36.4911 40.1271 36.2812 40.5635 36.1238C40.9999 35.9664 41.4877 35.8877 42.0269 35.8877C42.2323 35.8877 42.4376 35.8877 42.6173 35.9139C42.8227 35.9402 43.0281 35.9664 43.2078 36.0189C43.4132 36.0713 43.5929 36.1238 43.7726 36.2025C43.9524 36.2812 44.1321 36.3599 44.3118 36.4386L43.7726 37.3305C43.6699 37.2781 43.5673 37.2256 43.4389 37.1731C43.3105 37.1207 43.1822 37.0944 43.0281 37.042C42.8741 37.0157 42.72 36.9895 42.566 36.9633C42.412 36.937 42.2579 36.937 42.1039 36.937C41.7445 36.937 41.4107 36.9895 41.1283 37.0682C40.8459 37.1731 40.6148 37.3043 40.4095 37.4617C40.2041 37.6191 40.0757 37.829 39.9473 38.0651C39.8447 38.3012 39.7933 38.5635 39.7933 38.8521C39.7933 39.1407 39.8447 39.403 39.9473 39.6653C40.05 39.9014 40.2041 40.1113 40.4095 40.2949C40.6148 40.4786 40.8459 40.6097 41.1283 40.7147C41.4107 40.8196 41.7188 40.8721 42.0782 40.8721C42.3606 40.8721 42.6173 40.8458 42.8484 40.7671C43.0795 40.7147 43.2849 40.6097 43.4646 40.5048C43.6443 40.3999 43.7726 40.2425 43.8753 40.0851C43.978 39.9277 44.055 39.7178 44.0807 39.5342H42.0782V38.5635H45.1333C45.1847 38.8521 45.2103 39.1669 45.1847 39.4555C45.159 39.744 45.1076 40.0064 45.005 40.2687C44.9023 40.531 44.7482 40.7409 44.5685 40.9508C44.3888 41.1606 44.1577 41.3443 43.9267 41.5017C43.6699 41.6591 43.3875 41.764 43.0538 41.8427C42.72 41.9214 42.3863 41.9739 42.0012 41.9739C41.4621 41.9739 40.9743 41.8952 40.5635 41.7378C40.1271 41.5804 39.7676 41.3705 39.4852 41.0819C39.2028 40.7934 38.9718 40.4786 38.8177 40.1113C38.6637 39.6653 38.5867 39.2718 38.5867 38.8521Z" fill="#E2E2E2"/>
<path d="M48.5735 35.9663H51.5002C51.9367 35.9663 52.3218 36.0188 52.6555 36.0975C52.9893 36.2024 53.246 36.3336 53.4514 36.5172C53.6568 36.7008 53.8365 36.9107 53.9392 37.1731C54.0418 37.4354 54.0932 37.724 54.0932 38.0388C54.0932 38.2486 54.0675 38.4585 54.0162 38.6684C53.9648 38.8782 53.8878 39.0356 53.7851 39.2193C53.6824 39.3767 53.5541 39.5341 53.3743 39.6652C53.2203 39.7964 53.0149 39.9013 52.8095 39.98L54.0675 41.8689H52.6298L51.5516 40.1899H51.5259H49.7544V41.8689H48.5735V35.9663ZM51.5259 39.1406C51.7569 39.1406 51.9367 39.1143 52.1164 39.0619C52.2704 39.0094 52.4244 38.9307 52.5271 38.852C52.6298 38.7471 52.7325 38.6421 52.7839 38.511C52.8352 38.3798 52.8609 38.2224 52.8609 38.065C52.8609 37.724 52.7582 37.4879 52.5271 37.3042C52.2961 37.1206 51.9623 37.0419 51.5259 37.0419H49.7288V39.193H51.5259V39.1406Z" fill="#E2E2E2"/>
<path d="M57.1741 38.8783C57.1741 38.4324 57.2511 38.0388 57.4051 37.6453C57.5592 37.2781 57.7902 36.9633 58.0726 36.7009C58.355 36.4386 58.7145 36.2287 59.0996 36.0976C59.5103 35.9402 59.9468 35.8877 60.4346 35.8877C60.9223 35.8877 61.3588 35.9664 61.7696 36.0976C62.1803 36.255 62.5141 36.4386 62.8222 36.7009C63.1046 36.9633 63.3356 37.2781 63.4897 37.6453C63.6437 38.0126 63.7207 38.4324 63.7207 38.8783C63.7207 39.3243 63.6437 39.744 63.4897 40.1113C63.3356 40.4786 63.1046 40.7934 62.8222 41.0819C62.5397 41.3443 62.1803 41.5541 61.7696 41.7116C61.3588 41.869 60.9223 41.9477 60.4346 41.9477C59.9468 41.9477 59.4847 41.869 59.0996 41.7116C58.6888 41.5541 58.355 41.3443 58.0726 41.0819C57.7902 40.8196 57.5592 40.5048 57.4051 40.1113C57.2511 39.744 57.1741 39.3505 57.1741 38.8783ZM58.355 38.8783C58.355 39.1931 58.4064 39.4555 58.5091 39.6916C58.6118 39.9277 58.7658 40.1375 58.9455 40.3212C59.1252 40.5048 59.3563 40.636 59.613 40.7147C59.8697 40.8196 60.1522 40.8458 60.4602 40.8458C60.7683 40.8458 61.0507 40.7934 61.3074 40.7147C61.5642 40.6097 61.7952 40.4786 61.9749 40.3212C62.1547 40.1375 62.3087 39.9539 62.4114 39.6916C62.5141 39.4555 62.5654 39.1669 62.5654 38.8783C62.5654 38.5635 62.5141 38.3012 62.4114 38.0651C62.3087 37.829 62.1547 37.6191 61.9749 37.4617C61.7952 37.3043 61.5642 37.1731 61.3074 37.0682C61.0507 36.9895 60.7683 36.937 60.4602 36.937C60.1522 36.937 59.8697 36.9895 59.613 37.0682C59.3563 37.1469 59.1252 37.2781 58.9455 37.4617C58.7658 37.6191 58.6118 37.829 58.5091 38.0651C58.4064 38.3274 58.355 38.5898 58.355 38.8783Z" fill="#E2E2E2"/>
<path d="M67.0325 35.9663H68.2135V39.2193C68.2135 39.4816 68.2391 39.7177 68.3162 39.9276C68.3932 40.1374 68.4959 40.3211 68.6242 40.4523C68.7783 40.5834 68.9323 40.7146 69.1377 40.7671C69.3431 40.8458 69.5998 40.872 69.8566 40.872C70.139 40.872 70.37 40.8458 70.5754 40.7671C70.7808 40.6884 70.9605 40.5834 71.1145 40.4523C71.2686 40.3211 71.3713 40.1374 71.4226 39.9276C71.4996 39.7177 71.5253 39.4816 71.5253 39.2193V35.9663H72.7063V39.3504C72.7063 39.7439 72.6549 40.085 72.5266 40.3998C72.3982 40.7146 72.2185 40.9769 71.9617 41.213C71.7307 41.4491 71.4226 41.6065 71.0632 41.7377C70.7038 41.8689 70.3187 41.9213 69.8566 41.9213C69.3944 41.9213 69.0093 41.8689 68.6499 41.7377C68.2905 41.6065 68.0081 41.4491 67.7514 41.213C67.5203 40.9769 67.3149 40.7146 67.1866 40.3998C67.0582 40.085 67.0068 39.7439 67.0068 39.3504V35.9663H67.0325Z" fill="#E2E2E2"/>
<path d="M76.326 35.9663H79.3555C79.7919 35.9663 80.177 36.0188 80.5108 36.1237C80.8445 36.2286 81.1013 36.3598 81.3066 36.5434C81.512 36.7271 81.6917 36.9632 81.7944 37.2255C81.8971 37.4879 81.9485 37.8027 81.9485 38.1175C81.9485 38.4323 81.8971 38.7208 81.7944 38.9832C81.6917 39.2455 81.5377 39.4816 81.3323 39.6652C81.1269 39.8489 80.8445 40.0063 80.5364 40.1112C80.2027 40.2161 79.8176 40.2686 79.3812 40.2686H77.507V41.8426H76.326V35.9663ZM79.3812 39.2455C79.6122 39.2455 79.7919 39.2193 79.9716 39.1668C80.1257 39.1143 80.2797 39.0356 80.3824 38.9307C80.4851 38.8258 80.5878 38.7208 80.6391 38.5634C80.6905 38.4323 80.7162 38.2749 80.7162 38.0912C80.7162 37.7502 80.6135 37.4616 80.3824 37.278C80.1514 37.0944 79.8176 36.9894 79.3812 36.9894H77.4813V39.2455H79.3812Z" fill="#E2E2E2"/>
<path d="M37.6111 18.2324L40.3325 21.0131L20.5642 41.213L0.770194 21.0131L20.5642 0.787008L34.5817 15.1368H35.3776L20.5642 0L0 21.0131L20.5642 42L41.1027 21.0131L38.407 18.2324H37.6111Z" fill="#E2E2E2"/>
</svg>
